# xmcd
#
# Track frame offsets: 
#        150
#        22962
#        46420
#        65545
#        85667
#        104600
#        126772
#        140552
#        163465
#        182300
#        197492
#        215477
#
# Disc length: 3229 seconds
#
# Revision: 1
# Processed by: cddbd v1.5.2PL0 Copyright (c) Steve Scherf et al.
# Submitted via: ExactAudioCopy v0.95b4
#
DISCID=a70c9b0c
DTITLE=Supreme Majesty - Elements Of Creation
DYEAR=2005
DGENRE=Metal
TTITLE0=Soulseeker
TTITLE1=Spellbound
TTITLE2=Dance Of The Elements
TTITLE3=King Of Warriors
TTITLE4=My Revenge
TTITLE5=One More Promise
TTITLE6=The Quest Part I (Instrumental)
TTITLE7=Down Of The Dead
TTITLE8=Die In A Dream
TTITLE9=The Bitter End
TTITLE10=Out In The Fields (Bonus Track For Japan)
TTITLE11=Far Beyond The Sun (Bonus Track For Japan)
EXTD=YEAR: 2005/04
EXTT0=
EXTT1=
EXTT2=
EXTT3=
EXTT4=
EXTT5=
EXTT6=
EXTT7=
EXTT8=
EXTT9=
EXTT10=
EXTT11=
PLAYORDER=
